<svg width="43" height="43" viewBox="0 0 43 43" fill="none" xmlns="http://www.w3.org/2000/svg">
<g clip-path="url(#clip0)">
<path d="M0.954468 42.2273L3.85099 31.7273C1.96829 28.4687 0.954468 24.848 0.954468 21.0824C0.954468 9.64109 10.3683 0.227264 21.882 0.227264C33.3958 0.227264 42.9545 9.64109 42.9545 21.0824C42.9545 32.5237 33.3959 42.2273 21.882 42.2273C18.2613 42.2273 14.7855 41.0687 11.6717 39.3307L0.954468 42.2273Z" fill="white"/>
<path d="M12.251 35.5652L12.9028 35.9273C15.5821 37.5927 18.6959 38.6066 21.9545 38.6066C31.4407 38.6066 39.3338 30.7134 39.3338 21.0824C39.3338 11.4513 31.4407 3.84796 21.8821 3.84796C12.3235 3.84796 4.5752 11.5238 4.5752 21.0824C4.5752 24.4134 5.51659 27.672 7.2545 30.4238L7.68902 31.0755L6.02354 37.1583L12.251 35.5652Z" fill="#54CC61"/>
<path d="M16.3062 11.379L14.9304 11.3066C14.4959 11.3066 14.0614 11.4514 13.7718 11.7411C13.12 12.3204 12.0339 13.4066 11.7442 14.8549C11.2373 17.0273 12.0339 19.6342 13.9166 22.2411C15.7994 24.8479 19.4201 29.0479 25.7925 30.8583C27.82 31.4376 29.4132 31.0755 30.7166 30.279C31.7305 29.6273 32.3821 28.6135 32.5994 27.5273L32.8166 26.5134C32.8891 26.2238 32.7442 25.8617 32.4546 25.7169L27.8925 23.6169C27.6028 23.472 27.2407 23.5445 27.0235 23.8341L25.2132 26.1513C25.0683 26.2962 24.8511 26.3686 24.6339 26.2962C23.4028 25.8617 19.2752 24.1238 17.0304 19.779C16.9579 19.5618 16.9579 19.3445 17.1028 19.1997L18.8407 17.2446C18.9856 17.0273 19.0579 16.7377 18.9856 16.5204L16.8856 11.8135C16.8131 11.5962 16.5959 11.379 16.3062 11.379Z" fill="#FEFEFE"/>
</g>
<defs>
<clipPath id="clip0">
<rect width="42" height="42" fill="white" transform="translate(0.954468 0.227264)"/>
</clipPath>
</defs>
</svg>
